<svg width="24" height="24" viewBox="0 0 24 24" fill="none" xmlns="http://www.w3.org/2000/svg">
<path d="M0 12C0 5.37258 5.37258 0 12 0V0C18.6274 0 24 5.37258 24 12V12C24 18.6274 18.6274 24 12 24V24C5.37258 24 0 18.6274 0 12V12Z" fill="#1D1B20"/>
<path d="M12 12C13.8417 12 15.3334 10.5083 15.3334 8.66667C15.3334 6.825 13.8417 5.33333 12 5.33333C10.1584 5.33333 8.66671 6.825 8.66671 8.66667C8.66671 10.5083 10.1584 12 12 12ZM12 13.6667C9.77504 13.6667 5.33337 14.7833 5.33337 17V18.6667H18.6667V17C18.6667 14.7833 14.225 13.6667 12 13.6667Z" fill="white"/>
</svg>
