<svg width="24" height="24" viewBox="0 0 24 24" fill="none" xmlns="http://www.w3.org/2000/svg">
<path d="M0 12C0 5.37258 5.37258 0 12 0V0C18.6274 0 24 5.37258 24 12V12C24 18.6274 18.6274 24 12 24V24C5.37258 24 0 18.6274 0 12V12Z" fill="#005487"/>
<path d="M12 12C13.8417 12 15.3333 10.5083 15.3333 8.66665C15.3333 6.82498 13.8417 5.33331 12 5.33331C10.1583 5.33331 8.66668 6.82498 8.66668 8.66665C8.66668 10.5083 10.1583 12 12 12ZM12 13.6666C9.77501 13.6666 5.33334 14.7833 5.33334 17V18.6666H18.6667V17C18.6667 14.7833 14.225 13.6666 12 13.6666Z" fill="white"/>
</svg>
